<svg width="24" height="24" viewBox="0 0 24 24" fill="none" xmlns="http://www.w3.org/2000/svg">
<g id="Health/eyes">
<path id="Vector (Stroke)" fill-rule="evenodd" clip-rule="evenodd" d="M5.14806 8.36688C6.88785 6.87619 9.30557 5.74995 12 5.74995C14.6943 5.74995 17.112 6.87535 18.8519 8.36573C20.5623 9.8309 21.75 11.7703 21.75 13.5C21.75 15.2295 20.5623 17.169 18.8519 18.6342C17.112 20.1245 14.6943 21.25 12 21.25C9.30557 21.25 6.88785 20.1237 5.14806 18.633C3.43777 17.1676 2.25 15.2282 2.25 13.5C2.25 11.7717 3.43777 9.83229 5.14806 8.36688ZM6.12403 9.50595C4.57695 10.8315 3.75 12.3921 3.75 13.5C3.75 14.6078 4.57695 16.1684 6.12403 17.494C7.6416 18.7942 9.72388 19.75 12 19.75C14.2763 19.75 16.3586 18.7948 17.876 17.495C19.4229 16.1699 20.25 14.6093 20.25 13.5C20.25 12.3906 19.4229 10.83 17.876 9.50492C16.3586 8.20505 14.2763 7.24995 12 7.24995C9.72388 7.24995 7.6416 8.20566 6.12403 9.50595Z" fill="#616161"/>
<path id="Vector (Stroke)_2" fill-rule="evenodd" clip-rule="evenodd" d="M8.25 13.5C8.25 11.4289 9.92894 9.74995 12 9.74995C14.0711 9.74995 15.75 11.4289 15.75 13.5C15.75 15.571 14.0711 17.25 12 17.25C9.92894 17.25 8.25 15.571 8.25 13.5ZM12 11.25C10.7574 11.25 9.75 12.2573 9.75 13.5C9.75 14.7426 10.7574 15.75 12 15.75C13.2426 15.75 14.25 14.7426 14.25 13.5C14.25 12.2573 13.2426 11.25 12 11.25Z" fill="#616161"/>
<path id="Vector (Stroke)_3" fill-rule="evenodd" clip-rule="evenodd" d="M6.19402 5.02339C6.5307 4.7821 6.99924 4.85943 7.24053 5.19611L8.53778 7.00621C8.77907 7.34289 8.70174 7.81142 8.36506 8.05271C8.02838 8.294 7.55984 8.21667 7.31856 7.87999L6.02131 6.06989C5.78002 5.73321 5.85735 5.26468 6.19402 5.02339Z" fill="#616161"/>
<path id="Vector (Stroke)_4" fill-rule="evenodd" clip-rule="evenodd" d="M18.2499 5.24555C18.5866 5.48684 18.6639 5.95538 18.4226 6.29205L17.1253 8.10215C16.884 8.43883 16.4155 8.51615 16.0788 8.27485C15.7421 8.03356 15.6648 7.56502 15.9061 7.22835L17.2034 5.41825C17.4447 5.08157 17.9132 5.00425 18.2499 5.24555Z" fill="#616161"/>
<path id="Vector (Stroke)_5" fill-rule="evenodd" clip-rule="evenodd" d="M12.0039 2.74994C12.4181 2.74994 12.7539 3.08573 12.7539 3.49994V6.49995C12.7539 6.91416 12.4181 7.24995 12.0039 7.24995C11.5897 7.24995 11.2539 6.91416 11.2539 6.49995V3.49994C11.2539 3.08573 11.5897 2.74994 12.0039 2.74994Z" fill="#616161"/>
</g>
</svg>
