<svg width="32" height="32" viewBox="0 0 32 32" fill="none" xmlns="http://www.w3.org/2000/svg">
<g id="outline / menu / default">
<path id="icon" fill-rule="evenodd" clip-rule="evenodd" d="M4.33398 9.33334C4.33398 8.78106 4.7817 8.33334 5.33398 8.33334H26.6673C27.2196 8.33334 27.6673 8.78106 27.6673 9.33334C27.6673 9.88563 27.2196 10.3333 26.6673 10.3333H5.33398C4.7817 10.3333 4.33398 9.88563 4.33398 9.33334ZM4.33398 16C4.33398 15.4477 4.7817 15 5.33398 15H26.6673C27.2196 15 27.6673 15.4477 27.6673 16C27.6673 16.5523 27.2196 17 26.6673 17H5.33398C4.7817 17 4.33398 16.5523 4.33398 16ZM4.33398 22.6667C4.33398 22.1144 4.7817 21.6667 5.33398 21.6667H26.6673C27.2196 21.6667 27.6673 22.1144 27.6673 22.6667C27.6673 23.219 27.2196 23.6667 26.6673 23.6667H5.33398C4.7817 23.6667 4.33398 23.219 4.33398 22.6667Z" fill="#757575"/>
</g>
</svg>
