<?xml version="1.0" standalone="no"?>
<!DOCTYPE svg PUBLIC "-//W3C//DTD SVG 20010904//EN"
 "http://www.w3.org/TR/2001/REC-SVG-20010904/DTD/svg10.dtd">
<svg version="1.0" xmlns="http://www.w3.org/2000/svg"
 width="474.000000pt" height="562.000000pt" viewBox="0 0 474.000000 562.000000"
 preserveAspectRatio="xMidYMid meet">
<metadata>
Created by potrace 1.16, written by Peter Selinger 2001-2019
</metadata>
<g transform="translate(0.000000,562.000000) scale(0.100000,-0.100000)"
fill="#000000" stroke="none">
<path d="M1263 5164 c-10 -4 -13 -83 -13 -345 l0 -340 83 64 c210 164 442 272
703 328 97 21 134 24 334 23 251 0 325 -11 526 -79 793 -265 1263 -1088 1094
-1916 -93 -457 -394 -867 -813 -1107 -362 -207 -828 -266 -1237 -157 -232 63
-491 196 -645 334 l-40 35 -3 -373 c-2 -288 1 -377 10 -389 19 -23 337 -230
478 -312 236 -137 468 -244 585 -270 37 -8 60 -7 113 6 246 62 808 381 1177
669 486 378 775 817 916 1389 52 214 64 325 63 601 0 269 -17 418 -70 645
-132 564 -428 986 -796 1135 -227 92 -498 88 -766 -11 -301 -112 -400 -134
-592 -134 -193 0 -271 18 -595 133 -55 20 -134 44 -175 53 -75 16 -314 29
-337 18z"/>
<path d="M2310 4247 l0 -205 53 -12 c369 -88 681 -332 848 -667 26 -51 60
-133 75 -183 l29 -91 55 4 c30 2 45 2 33 0 -23 -4 -23 -6 -23 -164 l0 -160 28
15 c41 21 100 90 122 142 35 80 52 191 50 324 -2 146 -2 148 -20 220 -7 30
-12 55 -10 55 1 0 -12 24 -29 53 -17 29 -31 57 -31 62 0 6 -3 10 -7 10 -5 0
-22 12 -38 28 -17 15 -37 29 -45 31 -8 2 -37 10 -63 17 -27 7 -110 20 -185 29
-75 9 -162 20 -192 23 l-55 7 -8 75 c-37 362 -63 448 -151 507 -77 52 -163 74
-308 80 l-128 6 0 -206z"/>
<path d="M2024 3630 c-67 -14 -138 -55 -183 -106 l-42 -48 372 -372 373 -373
27 14 c47 25 172 129 233 196 213 230 238 454 69 609 -133 121 -343 114 -464
-17 l-40 -44 -59 55 c-81 74 -187 106 -286 86z"/>
<path d="M3193 3065 c-178 -46 -353 -132 -483 -237 l-60 -49 0 -184 c0 -137 3
-185 13 -189 39 -18 -123 24 -235 61 -17 5 -18 -10 -18 -216 l0 -221 29 0 c57
0 202 31 253 53 50 22 92 56 129 103 25 33 39 99 62 307 17 147 27 201 37 207
8 4 53 10 100 14 104 8 311 36 324 43 10 7 0 170 -17 263 -8 43 -17 65 -27 67
-8 1 -56 -9 -107 -22z"/>
</g>
</svg>
